<svg width="100" height="100" viewBox="0 0 100 100" fill="none" xmlns="http://www.w3.org/2000/svg">
<g clip-path="url(#clip0_1470_229)">
<path d="M67.0962 -0.0389344C67.6068 -0.0396816 68.1175 -0.0404605 68.6282 -0.0412691C69.6885 -0.0426403 70.7488 -0.0430855 71.8092 -0.0429469C73.1545 -0.0429233 74.4999 -0.0460973 75.8453 -0.05007C76.8965 -0.0526661 77.9477 -0.0531127 78.9989 -0.0529909C79.4945 -0.0532602 79.9901 -0.054262 80.4857 -0.0560771C82.9212 -0.0641722 85.3402 -0.029606 87.767 0.19136C87.9573 0.207378 88.1475 0.223396 88.3435 0.2399C89.3683 0.346499 90.1479 0.485491 90.9722 1.15735C91.1508 1.96905 91.1261 2.50142 90.7164 3.23713C89.7768 4.60668 88.7887 5.93278 87.7749 7.24821C87.443 7.68128 87.1111 8.1144 86.7793 8.54758C86.6222 8.75247 86.465 8.95735 86.3031 9.16845C85.8103 9.81279 85.323 10.4609 84.838 11.1111C83.4135 13.0167 81.9672 14.9057 80.523 16.7964C80.1515 17.2838 79.7816 17.7723 79.4126 18.2617C75.2411 23.7794 75.2411 23.7794 72.6852 24.3055C70.217 24.5694 67.7503 24.5519 65.2719 24.5278C54.3863 23.8352 54.3863 23.8352 44.4444 26.8518C43.8086 27.4877 43.323 28.1888 42.8241 28.9351C42.6406 29.2033 42.4567 29.4713 42.2725 29.739C41.9567 30.1984 41.6414 30.6582 41.328 31.1192C40.473 32.3726 39.5788 33.5928 38.6719 34.809C35.9178 38.5179 33.4599 42.4211 30.9849 46.3195C30.5939 46.9307 30.197 47.5374 29.7969 48.1427C29.6864 48.3123 29.5759 48.4819 29.462 48.6566C29.2624 48.9629 29.0602 49.2675 28.855 49.5701C28.4339 50.2235 28.2311 50.5832 28.2995 51.3708C28.3565 51.5295 28.4135 51.6882 28.4722 51.8518C29.1226 52.0686 29.5435 52.1178 30.2182 52.1308C30.4325 52.1354 30.6469 52.14 30.8677 52.1448C31.101 52.1487 31.3343 52.1525 31.5746 52.1565C31.9405 52.1637 31.9405 52.1637 32.3137 52.171C32.8387 52.181 33.3638 52.1905 33.8888 52.1995C34.7087 52.2135 35.5286 52.2293 36.3485 52.2453C38.8406 52.2915 41.3308 52.325 43.8232 52.2967C44.1157 52.2939 44.1157 52.2939 44.4141 52.291C45.3106 52.282 46.2065 52.268 47.1028 52.2452C47.4175 52.2408 47.7322 52.2365 48.0469 52.2325C48.4484 52.223 48.4484 52.223 48.858 52.2133C49.694 52.3382 49.9596 52.5737 50.463 53.2407C50.6616 54.4341 50.2807 55.0814 49.6238 56.0619C49.5317 56.2 49.4395 56.3381 49.3445 56.4805C47.2696 59.5488 44.9927 62.4842 42.7381 65.4211C42.0812 66.2771 41.4266 67.1322 40.8031 68.013C39.4858 69.8609 38.3046 71.0438 36.0207 71.45C26.8784 72.627 14.0343 73.0232 6.02665 67.5898C5.46244 67.1473 4.9299 66.6844 4.39815 66.2037C4.12825 65.9866 4.12825 65.9866 3.8529 65.7651C1.79355 64.0714 0.242728 61.7921 -0.0731321 59.0985C-0.38188 53.3512 1.06719 48.3156 3.24074 43.0555C3.34816 42.7946 3.45558 42.5336 3.56626 42.2648C6.26252 35.7715 9.25719 29.3609 12.8312 23.302C13.2112 22.6567 13.5855 22.0084 13.9594 21.3595C19.0137 12.6352 24.913 6.00748 34.9537 3.24069C35.1274 3.19134 35.301 3.14199 35.48 3.09115C40.8842 1.5843 46.5479 0.970525 52.1267 0.520781C52.3796 0.500268 52.3796 0.500268 52.6377 0.479342C57.4522 0.0969539 62.2676 -0.037233 67.0962 -0.0389344Z" fill="#FE6132"/>
<path d="M90.304 32.1056C90.8403 32.1036 91.3767 32.1004 91.9131 32.0969C92.7478 32.0917 93.5825 32.0902 94.4173 32.0917C94.8607 32.0918 95.3042 32.0887 95.7477 32.0854C97.3918 32.0943 98.7763 32.1096 100 33.3333C100.285 34.6242 100.072 35.7065 99.4068 36.8345C98.1135 38.69 96.4846 40.2857 94.9074 41.8982C94.7188 42.0933 94.5302 42.2885 94.3359 42.4895C93.4881 43.3542 92.6002 44.1539 91.682 44.9427C90.9875 45.5637 90.3404 46.2282 89.6918 46.8967C89.0683 47.5044 88.4174 48.071 87.76 48.6414C86.9607 49.3451 86.1897 50.078 85.4167 50.8102C84.3427 51.8275 83.2569 52.8247 82.1398 53.7946C81.565 54.2957 81.0022 54.8092 80.4398 55.3241C79.1674 56.4833 77.8796 57.6209 76.5697 58.7375C76.2924 58.9741 76.0151 59.2107 75.7378 59.4473C75.5976 59.5671 75.4573 59.6868 75.3127 59.8101C74.4467 60.552 73.597 61.3083 72.7575 62.0805C71.7422 63.0125 70.6904 63.8845 69.6181 64.7497C68.9627 65.2933 68.3348 65.8586 67.7083 66.4352C66.6736 67.3875 65.6041 68.2803 64.5101 69.1632C63.9011 69.6658 63.3149 70.1858 62.7315 70.7176C61.7546 71.6069 60.7453 72.4447 59.7186 73.2757C58.938 73.9162 58.1721 74.5721 57.4074 75.2315C56.2647 76.2155 55.1112 77.1832 53.9406 78.1341C53.2411 78.7034 52.5449 79.2765 51.8492 79.8506C48.8571 82.3194 45.8562 84.7755 42.7965 87.1604C42.3289 87.5251 41.8621 87.891 41.3954 88.2568C26.3079 100.063 26.3079 100.063 23.3362 100.014C23.045 100.01 22.7538 100.005 22.4537 100C22.5571 98.7038 23.0454 97.9533 23.7847 96.9329C23.9542 96.6929 23.9542 96.6929 24.1271 96.4481C24.4925 95.9325 24.8616 95.4198 25.2315 94.9074C25.4757 94.5668 25.7198 94.2263 25.9639 93.8856C26.5919 93.0118 27.2234 92.1406 27.8561 91.2701C28.4918 90.3952 29.1261 89.5193 29.7598 88.643C29.8845 88.4705 30.0092 88.2981 30.1377 88.1204C30.9792 86.9545 31.8116 85.7825 32.6389 84.6065C34.2112 82.3715 35.8144 80.1593 37.4179 77.9467C38.7673 76.0842 40.1119 74.219 41.4352 72.338C42.7588 70.4565 44.1038 68.5911 45.4534 66.7283C46.0825 65.8596 46.7102 64.99 47.338 64.1204C47.5887 63.7732 47.8395 63.4259 48.0903 63.0787C48.2144 62.9068 48.3385 62.735 48.4664 62.5579C48.8426 62.037 49.2187 61.5162 49.5949 60.9954C49.719 60.8235 49.8431 60.6517 49.971 60.4746C50.2219 60.1272 50.4729 59.7798 50.7239 59.4324C51.3486 58.5677 51.9728 57.7026 52.596 56.8369C54.0577 54.8077 55.5303 52.7873 57.0212 50.7795C57.3838 50.2899 57.744 49.7987 58.1018 49.3056C58.2003 49.1702 58.2987 49.0349 58.4001 48.8955C58.8328 48.2786 59.0278 47.9948 59.0278 47.2222C58.8244 47.2202 58.8244 47.2202 58.6169 47.2181C57.201 47.2033 55.7853 47.1837 54.3696 47.1615C53.8418 47.1538 53.3139 47.1473 52.7861 47.142C52.0258 47.1342 51.2657 47.1221 50.5055 47.1092C50.2708 47.1077 50.0361 47.1062 49.7943 47.1047C48.4533 47.0771 47.4885 46.9211 46.2963 46.2963C46.1407 45.4619 46.0961 45.026 46.2963 44.213C46.9536 43.2559 47.7158 42.4219 48.5052 41.5729C48.9885 41.0441 49.4358 40.4889 49.8843 39.9306C50.7729 38.8385 51.6785 37.7619 52.5915 36.6903C53.0591 36.1406 53.5184 35.5887 53.9614 35.0188C55.3646 33.3222 57.3901 32.926 59.4907 32.6389C60.9836 32.5035 62.4833 32.4936 63.9811 32.4698C64.4192 32.4606 64.8573 32.4512 65.2954 32.4415C66.4655 32.4166 67.6355 32.3959 68.8057 32.3764C69.5332 32.364 70.2607 32.3505 70.9881 32.3368C77.4262 32.2152 83.8648 32.1253 90.304 32.1056Z" fill="#FE6132"/>
</g>
<defs>
<clipPath id="clip0_1470_229">
<rect width="100" height="100" fill="white"/>
</clipPath>
</defs>
</svg>
